<svg xmlns="http://www.w3.org/2000/svg" xmlns:xlink="http://www.w3.org/1999/xlink" width="500" zoomAndPan="magnify" viewBox="0 0 375 374.999991" height="500" preserveAspectRatio="xMidYMid meet" version="1.0"><defs><clipPath id="71f50b3cb5"><path d="M 22.726562 0 L 352.273438 0 C 358.300781 0 364.082031 2.394531 368.34375 6.65625 C 372.605469 10.917969 375 16.699219 375 22.726562 L 375 352.273438 C 375 358.300781 372.605469 364.082031 368.34375 368.34375 C 364.082031 372.605469 358.300781 375 352.273438 375 L 22.726562 375 C 16.699219 375 10.917969 372.605469 6.65625 368.34375 C 2.394531 364.082031 0 358.300781 0 352.273438 L 0 22.726562 C 0 16.699219 2.394531 10.917969 6.65625 6.65625 C 10.917969 2.394531 16.699219 0 22.726562 0 Z M 22.726562 0 " clip-rule="nonzero"/></clipPath><clipPath id="923db832ac"><path d="M 44.105469 197.535156 L 109 197.535156 L 109 323.535156 L 44.105469 323.535156 Z M 44.105469 197.535156 " clip-rule="nonzero"/></clipPath><clipPath id="1c85578708"><path d="M 107 197.535156 L 171.605469 197.535156 L 171.605469 323.535156 L 107 323.535156 Z M 107 197.535156 " clip-rule="nonzero"/></clipPath><clipPath id="c144e3160a"><path d="M 201.367188 197.535156 L 264 197.535156 L 264 323.535156 L 201.367188 323.535156 Z M 201.367188 197.535156 " clip-rule="nonzero"/></clipPath><clipPath id="a918150d22"><path d="M 262 197.535156 L 325.117188 197.535156 L 325.117188 323.535156 L 262 323.535156 Z M 262 197.535156 " clip-rule="nonzero"/></clipPath><clipPath id="02f82e5d93"><path d="M 54.628906 51.167969 L 109 51.167969 L 109 177.167969 L 54.628906 177.167969 Z M 54.628906 51.167969 " clip-rule="nonzero"/></clipPath><clipPath id="15d72b93e5"><path d="M 107 51.167969 L 161.128906 51.167969 L 161.128906 177.167969 L 107 177.167969 Z M 107 51.167969 " clip-rule="nonzero"/></clipPath><clipPath id="ebb3f4c83d"><path d="M 197.332031 60 L 264 60 L 264 177 L 197.332031 177 Z M 197.332031 60 " clip-rule="nonzero"/></clipPath><clipPath id="47282a6e83"><path d="M 262 60 L 329.332031 60 L 329.332031 177 L 262 177 Z M 262 60 " clip-rule="nonzero"/></clipPath></defs><g clip-path="url(#71f50b3cb5)"><rect x="-37.5" width="450" fill="#03ab5a" y="-37.499999" height="449.999989" fill-opacity="1"/></g><g clip-path="url(#923db832ac)"><path fill="#dc383f" d="M 108.09375 322.996094 C 107.570312 323.523438 106.707031 323.527344 106.183594 322.996094 L 44.671875 261.554688 C 44.144531 261.027344 44.140625 260.167969 44.671875 259.640625 L 106.054688 198.070312 C 106.582031 197.542969 107.441406 197.539062 107.96875 198.070312 Z M 108.09375 322.996094 " fill-opacity="1" fill-rule="nonzero"/></g><g clip-path="url(#1c85578708)"><path fill="#901d2a" d="M 107.613281 322.996094 C 108.140625 323.523438 109 323.527344 109.523438 322.996094 L 171.039062 261.554688 C 171.5625 261.027344 171.566406 260.167969 171.039062 259.640625 L 109.652344 198.070312 C 109.128906 197.542969 108.265625 197.539062 107.742188 198.070312 Z M 107.613281 322.996094 " fill-opacity="1" fill-rule="nonzero"/></g><g clip-path="url(#c144e3160a)"><path fill="#333333" d="M 263.40625 273.941406 C 263.742188 268.160156 263.742188 272.324219 263.742188 268.160156 C 263.742188 251.824219 263.234375 226.832031 263.441406 198.019531 C 263.445312 197.523438 262.488281 197.753906 261.960938 197.753906 C 245.160156 197.753906 231.539062 211.421875 231.539062 228.28125 C 231.539062 233.929688 233.066406 239.214844 235.734375 243.757812 C 234.445312 243.589844 233.125 243.5 231.792969 243.5 C 214.996094 243.5 201.375 257.167969 201.375 274.027344 C 201.375 290.886719 214.996094 304.554688 231.796875 304.554688 C 243.734375 304.554688 254.164062 297.601562 259.558594 287.539062 C 259.253906 289.265625 258.875 291.121094 258.398438 293.074219 C 257.375 297.277344 256.105469 302.515625 253.050781 308.460938 C 251.105469 312.242188 247.644531 317.859375 241.640625 323.488281 C 249.007812 323.496094 256.378906 323.503906 263.75 323.507812 L 263.75 279.476562 C 263.632812 277.703125 263.511719 275.925781 263.394531 274.152344 C 263.398438 274.082031 263.40625 274.011719 263.410156 273.941406 Z M 263.40625 273.941406 " fill-opacity="1" fill-rule="nonzero"/></g><g clip-path="url(#a918150d22)"><path fill="#211b1b" d="M 294.679688 243.5 C 293.339844 243.5 292.027344 243.589844 290.738281 243.757812 C 293.402344 239.21875 294.933594 233.929688 294.933594 228.28125 C 294.933594 211.421875 281.3125 197.757812 264.507812 197.757812 C 263.984375 197.757812 263.027344 197.527344 263.027344 198.023438 C 263.234375 226.835938 262.726562 251.828125 262.726562 268.160156 C 262.726562 272.328125 262.726562 268.160156 263.066406 273.945312 C 263.164062 275.679688 263.410156 277.386719 263.769531 279.042969 C 263.761719 279.191406 263.75 279.335938 263.742188 279.480469 L 263.742188 323.511719 C 271.113281 323.503906 278.480469 323.496094 285.851562 323.488281 C 279.84375 317.859375 276.382812 312.25 274.4375 308.460938 C 271.386719 302.519531 270.113281 297.28125 269.089844 293.078125 C 268.839844 292.042969 268.617188 291.035156 268.414062 290.0625 C 274.117188 298.742188 283.765625 304.554688 294.675781 304.554688 C 311.480469 304.554688 325.101562 290.886719 325.101562 274.027344 C 325.101562 257.167969 311.480469 243.5 294.675781 243.5 Z M 294.679688 243.5 " fill-opacity="1" fill-rule="nonzero"/></g><path fill="#333333" d="M 108.097656 120.746094 C 108.144531 115.886719 108.222656 106.570312 108.097656 120.746094 Z M 108.097656 120.746094 " fill-opacity="1" fill-rule="nonzero"/><g clip-path="url(#02f82e5d93)"><path fill="#333333" d="M 108.097656 120.746094 C 108.066406 124.328125 108.046875 125.480469 108.140625 112.964844 C 108.398438 78.285156 108.398438 75.585938 108.386719 51.511719 C 108.386719 51.191406 107.835938 51.835938 107.554688 52.011719 C 76.503906 71.15625 54.628906 85.886719 54.628906 118.4375 C 54.628906 146.070312 92.96875 151.628906 104.664062 139.234375 C 104.320312 141.65625 103.820312 144.417969 103.082031 147.433594 C 102.082031 151.535156 100.835938 156.644531 97.851562 162.441406 C 95.945312 166.132812 92.566406 171.609375 86.683594 177.097656 C 93.894531 177.105469 101.105469 177.117188 108.316406 177.121094 L 108.316406 134.167969 L 108.023438 129.757812 C 108.054688 126.035156 108.078125 123.070312 108.101562 120.738281 Z M 108.097656 120.746094 " fill-opacity="1" fill-rule="nonzero"/></g><path fill="#211b1b" d="M 107.644531 120.730469 C 107.519531 106.589844 107.597656 115.871094 107.644531 120.730469 Z M 107.644531 120.730469 " fill-opacity="1" fill-rule="nonzero"/><g clip-path="url(#15d72b93e5)"><path fill="#211b1b" d="M 161.113281 118.4375 C 161.113281 85.886719 139.238281 71.15625 108.1875 52.011719 C 107.90625 51.835938 107.351562 51.191406 107.351562 51.511719 C 107.339844 75.585938 107.34375 78.285156 107.601562 112.964844 C 107.691406 125.496094 107.675781 124.328125 107.640625 120.730469 C 107.664062 123.285156 107.691406 126.609375 107.726562 130.867188 C 107.65625 131.96875 107.582031 133.070312 107.507812 134.171875 L 107.507812 177.125 C 114.71875 177.117188 121.929688 177.109375 129.140625 177.105469 C 123.261719 171.613281 119.878906 166.136719 117.972656 162.445312 C 114.988281 156.648438 113.742188 151.539062 112.742188 147.4375 C 112.015625 144.464844 111.519531 141.738281 111.171875 139.339844 C 122.980469 151.601562 161.113281 146 161.113281 118.4375 Z M 161.113281 118.4375 " fill-opacity="1" fill-rule="nonzero"/></g><g clip-path="url(#ebb3f4c83d)"><path fill="#dc383f" d="M 263.410156 100.65625 C 263.726562 143.546875 263.730469 146.886719 263.714844 176.660156 C 263.714844 177.054688 263.03125 176.257812 262.683594 176.039062 C 224.34375 152.363281 197.332031 134.144531 197.332031 93.890625 C 197.332031 53.636719 263.015625 51.257812 263.25 78.429688 C 263.730469 134.484375 263.113281 60.402344 263.410156 100.65625 Z M 263.410156 100.65625 " fill-opacity="1" fill-rule="nonzero"/></g><g clip-path="url(#47282a6e83)"><path fill="#901d2a" d="M 263.242188 100.65625 C 262.921875 143.546875 262.917969 146.886719 262.933594 176.660156 C 262.933594 177.054688 263.617188 176.257812 263.964844 176.039062 C 302.308594 152.363281 329.320312 134.144531 329.320312 93.890625 C 329.320312 53.636719 263.632812 51.257812 263.402344 78.429688 C 262.917969 134.484375 263.539062 60.402344 263.242188 100.65625 Z M 263.242188 100.65625 " fill-opacity="1" fill-rule="nonzero"/></g></svg>